<?xml version="1.0" encoding="UTF-8"?><svg id="Layer_1" xmlns="http://www.w3.org/2000/svg" viewBox="0 0 138 56"><defs><style>.cls-1{fill:#070707;}</style></defs><path class="cls-1" d="M26.87,26.41c4.13,1.03,7.9,4.34,7.9,9.87,0,4.19-1.96,6.61-3.41,7.96-2.63,2.53-6.97,3.72-13.48,3.72-3.51,0-6.15-.26-7.85-.47V8.59c2.22-.47,5.73-.83,9.25-.83,12.04,0,14.1,5.89,14.1,9.87,0,3.77-2.38,7.08-6.51,8.63v.15Zm-7.23-1.86c4.75,0,7.75-2.64,7.75-6.3,0-4.75-3.82-5.94-7.54-5.94-1.96,0-3.15,.15-3.87,.31v11.93h3.67Zm-3.67,18.6c.88,.16,2.07,.21,3.62,.21,4.8,0,8.94-2.01,8.94-7.23s-4.5-7.13-9.09-7.13h-3.46v14.16Z"/></svg>