<?xml version="1.0" encoding="utf-8"?>

<!DOCTYPE svg PUBLIC "-//W3C//DTD SVG 1.1//EN" "http://www.w3.org/Graphics/SVG/1.1/DTD/svg11.dtd">
<svg version="1.1" id="Layer_1" xmlns="http://www.w3.org/2000/svg" xmlns:xlink="http://www.w3.org/1999/xlink" x="0px" y="0px"
	 viewBox="0 0 1677.704 1659.612" enable-background="new 0 0 1677.704 1659.612" xml:space="preserve">
<g>
	<ellipse transform="matrix(0.8659 -0.5002 0.5002 0.8659 -292.8254 517.8629)" cx="819.474" cy="805.091" rx="12.72" ry="12.72"/>
	<ellipse transform="matrix(0.787 -0.617 0.617 0.787 -312.8808 660.1223)" cx="799.514" cy="783.159" rx="14.217" ry="14.217"/>
	
		<ellipse transform="matrix(0.0216 -0.9998 0.9998 0.0216 -42.1844 1566.4458)" cx="779.222" cy="804.775" rx="15.713" ry="15.713"/>
	<ellipse transform="matrix(0.7093 -0.7049 0.7049 0.7093 -363.046 794.7647)" cx="782.062" cy="837.545" rx="17.21" ry="17.21"/>
	
		<ellipse transform="matrix(0.1671 -0.9859 0.9859 0.1671 -176.5903 1515.254)" cx="808.581" cy="862.151" rx="18.706" ry="18.706"/>
	
		<ellipse transform="matrix(0.8419 -0.5396 0.5396 0.8419 -332.6695 594.3234)" cx="847.936" cy="864.895" rx="20.203" ry="20.203"/>
	
		<ellipse transform="matrix(0.4069 -0.9135 0.9135 0.4069 -244.6074 1306.6105)" cx="883.878" cy="841.67" rx="21.699" ry="21.699"/>
	<ellipse transform="matrix(0.9885 -0.151 0.151 0.9885 -110.2986 145.2003)" cx="900.908" cy="798.85" rx="23.195" ry="23.195"/>
	
		<ellipse transform="matrix(0.7555 -0.6551 0.6551 0.7555 -274.1897 766.5981)" cx="890.071" cy="750.686" rx="24.692" ry="24.692"/>
	
		<ellipse transform="matrix(0.2953 -0.9554 0.9554 0.2953 -82.0164 1317.3218)" cx="851.957" cy="714.257" rx="26.188" ry="26.188"/>
	<ellipse transform="matrix(0.9685 -0.2489 0.2489 0.9685 -150.108 220.5012)" cx="796.945" cy="703.872" rx="27.685" ry="27.685"/>
	
		<ellipse transform="matrix(0.5954 -0.8034 0.8034 0.5954 -283.0612 889.7332)" cx="741.901" cy="725.923" rx="29.181" ry="29.181"/>
	<ellipse transform="matrix(0.095 -0.9955 0.9955 0.095 -134.7983 1404.6029)" cx="705.111" cy="776.438" rx="30.678" ry="30.678"/>
	<ellipse transform="matrix(0.9026 -0.4304 0.4304 0.9026 -294.2684 383.358)" cx="700.167" cy="842.073" rx="32.174" ry="32.174"/>
	
		<ellipse transform="matrix(0.5545 -0.8322 0.8322 0.5545 -425.9514 1011.5771)" cx="731.805" cy="903.613" rx="33.671" ry="33.671"/>
	
		<ellipse transform="matrix(0.0521 -0.9986 0.9986 0.0521 -187.9903 1684.8352)" cx="793.503" cy="941.443" rx="35.167" ry="35.167"/>
	<ellipse transform="matrix(0.886 -0.4637 0.4637 0.886 -337.6987 510.4283)" cx="869.255" cy="942.023" rx="36.664" ry="36.664"/>
	<ellipse transform="matrix(0.5278 -0.8494 0.8494 0.5278 -323.4691 1222.0168)" cx="937.356" cy="901.939" rx="38.16" ry="38.16"/>
	<ellipse transform="matrix(0.0247 -0.9997 0.9997 0.0247 123.2754 1785.9034)" cx="976.953" cy="829.77" rx="36.664" ry="36.664"/>
	<ellipse transform="matrix(0.8798 -0.4753 0.4753 0.8798 -238.0767 553.3182)" cx="975.089" cy="747.43" rx="35.167" ry="35.167"/>
	
		<ellipse transform="matrix(0.6505 -0.7595 0.7595 0.6505 -188.3141 948.1993)" cx="936.151" cy="678.721" rx="33.671" ry="33.671"/>
	<ellipse transform="matrix(0.2236 -0.9747 0.9747 0.2236 58.4464 1345.2527)" cx="873.626" cy="635.94" rx="32.174" ry="32.174"/>
	<ellipse transform="matrix(0.9941 -0.108 0.108 0.9941 -62.6113 90.3053)" cx="802.302" cy="623.118" rx="30.678" ry="30.678"/>
	
		<ellipse transform="matrix(0.8472 -0.5312 0.5312 0.8472 -226.5109 487.7724)" cx="734.778" cy="637.694" rx="29.181" ry="29.181"/>
	
		<ellipse transform="matrix(0.6482 -0.7615 0.7615 0.6482 -273.7838 754.4761)" cx="679.569" cy="673.515" rx="27.685" ry="27.685"/>
	
		<ellipse transform="matrix(0.4001 -0.9165 0.9165 0.4001 -277.9434 1021.4177)" cx="641.256" cy="723.021" rx="26.188" ry="26.188"/>
	
		<ellipse transform="matrix(0.1293 -0.9916 0.9916 0.1293 -231.4285 1293.9794)" cx="621.152" cy="778.778" rx="24.692" ry="24.692"/>
	<ellipse transform="matrix(0.9901 -0.1407 0.1407 0.9901 -111.2844 95.2511)" cx="618.004" cy="834.664" rx="23.195" ry="23.195"/>
	<ellipse transform="matrix(0.9205 -0.3907 0.3907 0.9205 -296.2088 316.2075)" cx="629.08" cy="886.135" rx="21.699" ry="21.699"/>
	<ellipse transform="matrix(0.7952 -0.6064 0.6064 0.7952 -430.8137 585.3084)" cx="650.96" cy="930.34" rx="20.203" ry="20.203"/>
	
		<ellipse transform="matrix(0.6277 -0.7785 0.7785 0.6277 -498.6878 889.1296)" cx="680.178" cy="965.908" rx="18.706" ry="18.706"/>
	<ellipse transform="matrix(0.5415 -0.8407 0.8407 0.5415 -507.2896 1055.0818)" cx="713.625" cy="992.61" rx="17.21" ry="17.21"/>
	
		<ellipse transform="matrix(0.3477 -0.9376 0.9376 0.3477 -459.5118 1361.3419)" cx="748.587" cy="1010.904" rx="15.713" ry="15.713"/>
	
		<ellipse transform="matrix(0.2229 -0.9748 0.9748 0.2229 -387.6083 1557.4498)" cx="783.118" cy="1021.855" rx="14.217" ry="14.217"/>
	<ellipse transform="matrix(0.0651 -0.9979 0.9979 0.0651 -261.944 1773.9824)" cx="815.732" cy="1026.78" rx="12.72" ry="12.72"/>
	<ellipse transform="matrix(0.9983 -0.0582 0.0582 0.9983 -58.3032 50.9072)" cx="845.35" cy="1027.007" rx="12.72" ry="12.72"/>
	<ellipse transform="matrix(0.981 -0.1941 0.1941 0.981 -182.1124 188.9802)" cx="873.126" cy="1023.632" rx="14.217" ry="14.217"/>
	
		<ellipse transform="matrix(0.9509 -0.3096 0.3096 0.9509 -270.3183 329.1014)" cx="901.821" cy="1016.309" rx="15.713" ry="15.713"/>
	<ellipse transform="matrix(0.8937 -0.4486 0.4486 0.8937 -351.255 524.9465)" cx="932.346" cy="1003.847" rx="17.21" ry="17.21"/>
	
		<ellipse transform="matrix(0.7811 -0.6244 0.6244 0.7811 -404.3253 817.2318)" cx="963.378" cy="985.267" rx="18.706" ry="18.706"/>
	
		<ellipse transform="matrix(0.7043 -0.7099 0.7099 0.7043 -387.5481 988.9762)" cx="993.454" cy="959.725" rx="20.203" ry="20.203"/>
	
		<ellipse transform="matrix(0.5539 -0.8326 0.8326 0.5539 -316.1618 1263.3121)" cx="1020.735" cy="926.672" rx="21.699" ry="21.699"/>
	
		<ellipse transform="matrix(0.3509 -0.9364 0.9364 0.3509 -152.9146 1551.7532)" cx="1042.852" cy="886.177" rx="23.195" ry="23.195"/>
	
		<ellipse transform="matrix(0.1236 -0.9923 0.9923 0.1236 94.0832 1784.5463)" cx="1057.353" cy="839.008" rx="24.692" ry="24.692"/>
	
		<ellipse transform="matrix(0.9932 -0.1165 0.1165 0.9932 -84.4249 129.1167)" cx="1061.844" cy="786.463" rx="26.188" ry="26.188"/>
	
		<ellipse transform="matrix(0.9348 -0.3551 0.3551 0.9348 -190.8891 421.941)" cx="1054.089" cy="731.028" rx="27.685" ry="27.685"/>
	<ellipse transform="matrix(0.817 -0.5766 0.5766 0.817 -200.7725 718.9832)" cx="1032.419" cy="675.822" rx="29.181" ry="29.181"/>
	<ellipse transform="matrix(0.6439 -0.7651 0.7651 0.6439 -123.3777 984.6296)" cx="996.06" cy="624.855" rx="30.678" ry="30.678"/>
	<ellipse transform="matrix(0.4242 -0.9056 0.9056 0.4242 16.7636 1191.6509)" cx="945.489" cy="582.643" rx="32.174" ry="32.174"/>
	<ellipse transform="matrix(0.1713 -0.9852 0.9852 0.1713 185.876 1328.5911)" cx="882.689" cy="553.806" rx="33.671" ry="33.671"/>
	<ellipse transform="matrix(0.9952 -0.0982 0.0982 0.9952 -49.3796 82.3195)" cx="811.145" cy="542.538" rx="35.167" ry="35.167"/>
	
		<ellipse transform="matrix(0.9311 -0.3647 0.3647 0.9311 -150.6583 306.4379)" cx="736.045" cy="552.126" rx="36.664" ry="36.664"/>
	<ellipse transform="matrix(0.7946 -0.6071 0.6071 0.7946 -218.3616 523.0129)" cx="663.852" cy="584.253" rx="38.16" ry="38.16"/>
	<ellipse transform="matrix(0.5933 -0.805 0.805 0.5933 -269.1739 744.2167)" cx="601.871" cy="638.476" rx="36.664" ry="36.664"/>
	<ellipse transform="matrix(0.3465 -0.938 0.938 0.3465 -299.5768 987.2869)" cx="558.827" cy="708.662" rx="35.167" ry="35.167"/>
	
		<ellipse transform="matrix(0.0805 -0.9968 0.9968 0.0805 -287.2964 1258.7445)" cx="538.631" cy="785.096" rx="33.671" ry="33.671"/>
	<ellipse transform="matrix(0.983 -0.1838 0.1838 0.983 -149.0012 113.8953)" cx="539.983" cy="860.833" rx="32.174" ry="32.174"/>
	<ellipse transform="matrix(0.9036 -0.4284 0.4284 0.9036 -344.628 329.5782)" cx="559.919" cy="930.459" rx="30.678" ry="30.678"/>
	
		<ellipse transform="matrix(0.7691 -0.6391 0.6391 0.7691 -495.6071 608.6601)" cx="594.572" cy="990.242" rx="29.181" ry="29.181"/>
	
		<ellipse transform="matrix(0.5921 -0.8058 0.8058 0.5921 -575.5431 938.9498)" cx="639.786" cy="1038.035" rx="27.685" ry="27.685"/>
	
		<ellipse transform="matrix(0.3862 -0.9224 0.9224 0.3862 -565.3047 1296.521)" cx="691.574" cy="1073.039" rx="26.188" ry="26.188"/>
	
		<ellipse transform="matrix(0.2845 -0.9587 0.9587 0.2845 -516.1777 1499.4128)" cx="746.414" cy="1095.51" rx="24.692" ry="24.692"/>
	
		<ellipse transform="matrix(0.072 -0.9974 0.9974 0.072 -359.9251 1825.9829)" cx="801.318" cy="1106.415" rx="23.195" ry="23.195"/>
	<ellipse transform="matrix(0.9894 -0.1453 0.1453 0.9894 -151.8151 135.8356)" cx="854" cy="1107.218" rx="21.699" ry="21.699"/>
	
		<ellipse transform="matrix(0.9726 -0.2324 0.2324 0.9726 -230.8435 239.9051)" cx="902.794" cy="1099.709" rx="20.203" ry="20.203"/>
	
		<ellipse transform="matrix(0.9076 -0.4199 0.4199 0.9076 -368.3864 497.9006)" cx="946.725" cy="1085.693" rx="18.706" ry="18.706"/>
	<ellipse transform="matrix(0.8662 -0.4997 0.4997 0.8662 -401.327 635.0645)" cx="985.194" cy="1066.931" rx="17.21" ry="17.21"/>
	
		<ellipse transform="matrix(0.7665 -0.6423 0.6423 0.7665 -433.4992 897.9269)" cx="1018.063" cy="1045.103" rx="15.713" ry="15.713"/>
	
		<ellipse transform="matrix(0.7201 -0.6939 0.6939 0.7201 -416.1723 1011.3792)" cx="1045.556" cy="1021.551" rx="14.217" ry="14.217"/>
	<ellipse transform="matrix(0.6441 -0.765 0.765 0.6441 -382.8811 1172.0858)" cx="1068.072" cy="997.483" rx="12.72" ry="12.72"/>
	
		<ellipse transform="matrix(0.5515 -0.8342 0.8342 0.5515 -325.3968 1342.7354)" cx="1086.037" cy="973.985" rx="12.72" ry="12.72"/>
	
		<ellipse transform="matrix(0.4938 -0.8696 0.8696 0.4938 -269.0844 1438.2998)" cx="1100.915" cy="950.285" rx="14.217" ry="14.217"/>
	<ellipse transform="matrix(0.411 -0.9116 0.9116 0.411 -185.893 1559.9689)" cx="1114.351" cy="923.851" rx="15.713" ry="15.713"/>
	<ellipse transform="matrix(0.3051 -0.9523 0.9523 0.3051 -67.8928 1693.3022)" cx="1126.307" cy="893.171" rx="17.21" ry="17.21"/>
	
		<ellipse transform="matrix(0.2052 -0.9787 0.9787 0.2052 62.7515 1793.6906)" cx="1135.711" cy="858.211" rx="18.706" ry="18.706"/>
	
		<ellipse transform="matrix(0.0609 -0.9981 0.9981 0.0609 254.2531 1908.5094)" cx="1141.427" cy="819.129" rx="20.203" ry="20.203"/>
	<ellipse transform="matrix(0.9988 -0.0492 0.0492 0.9988 -36.8215 57.1509)" cx="1142.139" cy="776.301" rx="21.699" ry="21.699"/>
	
		<ellipse transform="matrix(0.9785 -0.2061 0.2061 0.9785 -126.1746 249.9494)" cx="1136.622" cy="730.589" rx="23.195" ry="23.195"/>
	
		<ellipse transform="matrix(0.9156 -0.4021 0.4021 0.9156 -179.7794 509.4698)" cx="1123.57" cy="682.935" rx="24.692" ry="24.692"/>
	<ellipse transform="matrix(0.8756 -0.483 0.483 0.8756 -169.5983 611.181)" cx="1101.936" cy="634.901" rx="26.188" ry="26.188"/>
	<ellipse transform="matrix(0.7582 -0.652 0.652 0.7582 -124.6652 840.469)" cx="1070.882" cy="588.322" rx="27.685" ry="27.685"/>
	<ellipse transform="matrix(0.5976 -0.8018 0.8018 0.5976 -22.891 1045.238)" cx="1029.916" cy="545.425" rx="29.181" ry="29.181"/>
	<ellipse transform="matrix(0.5073 -0.8618 0.8618 0.5073 44.0247 1094.5542)" cx="979.217" cy="508.777" rx="30.678" ry="30.678"/>
	<ellipse transform="matrix(0.3125 -0.9499 0.9499 0.3125 175.207 1204.1827)" cx="919.546" cy="481.045" rx="32.174" ry="32.174"/>
	
		<ellipse transform="matrix(0.0852 -0.9964 0.9964 0.0852 316.4341 1274.4768)" cx="852.277" cy="464.913" rx="33.671" ry="33.671"/>
	<ellipse transform="matrix(0.9886 -0.1508 0.1508 0.9886 -60.8871 122.9058)" cx="779.926" cy="462.908" rx="35.167" ry="35.167"/>
	<ellipse transform="matrix(0.924 -0.3823 0.3823 0.924 -128.7901 305.9529)" cx="705.487" cy="477.056" rx="36.664" ry="36.664"/>
	<ellipse transform="matrix(0.8038 -0.5949 0.5949 0.8038 -178.4017 476.3594)" cx="633.024" cy="508.661" rx="38.16" ry="38.16"/>
	
		<ellipse transform="matrix(0.7246 -0.6892 0.6892 0.7246 -228.3529 544.4962)" cx="567.112" cy="557.969" rx="36.664" ry="36.664"/>
	
		<ellipse transform="matrix(0.5382 -0.8428 0.8428 0.5382 -285.9931 720.4155)" cx="514.418" cy="621.191" rx="35.167" ry="35.167"/>
	<ellipse transform="matrix(0.321 -0.9471 0.9471 0.321 -330.0497 923.1905)" cx="478.783" cy="691.763" rx="33.671" ry="33.671"/>
	
		<ellipse transform="matrix(0.0905 -0.9959 0.9959 0.0905 -343.6496 1153.9779)" cx="459.945" cy="765.127" rx="32.174" ry="32.174"/>
	<ellipse transform="matrix(0.9902 -0.1399 0.1399 0.9902 -112.6768 72.1205)" cx="456.616" cy="837.469" rx="30.678" ry="30.678"/>
	
		<ellipse transform="matrix(0.9704 -0.2414 0.2414 0.9704 -204.8847 139.5111)" cx="466.839" cy="905.796" rx="29.181" ry="29.181"/>
	<ellipse transform="matrix(0.8977 -0.4405 0.4405 0.8977 -376.5081 314.1159)" cx="488.37" cy="968.078" rx="27.685" ry="27.685"/>
	
		<ellipse transform="matrix(0.7829 -0.6222 0.6222 0.7829 -523.6655 544.7942)" cx="518.744" cy="1022.701" rx="26.188" ry="26.188"/>
	<ellipse transform="matrix(0.7302 -0.6832 0.6832 0.7302 -580.5298 668.0387)" cx="555.61" cy="1069.09" rx="24.692" ry="24.692"/>
	
		<ellipse transform="matrix(0.5757 -0.8176 0.8176 0.5757 -651.9555 957.631)" cx="596.784" cy="1107.032" rx="23.195" ry="23.195"/>
	
		<ellipse transform="matrix(0.5047 -0.8633 0.8633 0.5047 -664.219 1115.7831)" cx="640.249" cy="1136.731" rx="21.699" ry="21.699"/>
	<ellipse transform="matrix(0.34 -0.9404 0.9404 0.34 -638.0862 1408.51)" cx="684.41" cy="1158.842" rx="20.203" ry="20.203"/>
	<ellipse transform="matrix(0.273 -0.962 0.962 0.273 -600.3499 1553.7679)" cx="727.85" cy="1174.095" rx="18.706" ry="18.706"/>
	
		<ellipse transform="matrix(0.1641 -0.9864 0.9864 0.1641 -524.1049 1748.4543)" cx="769.635" cy="1183.479" rx="17.21" ry="17.21"/>
	
		<ellipse transform="matrix(0.0467 -0.9989 0.9989 0.0467 -415.4938 1940.5164)" cx="808.888" cy="1187.935" rx="15.713" ry="15.713"/>
	<ellipse transform="matrix(0.9994 -0.0334 0.0334 0.9994 -39.2291 28.8949)" cx="845.101" cy="1188.424" rx="14.217" ry="14.217"/>
	<ellipse transform="matrix(0.9929 -0.1186 0.1186 0.9929 -134.4533 112.4989)" cx="877.985" cy="1185.922" rx="12.72" ry="12.72"/>
	<ellipse transform="matrix(0.9774 -0.2113 0.2113 0.9774 -229.1626 218.4344)" cx="907.283" cy="1181.27" rx="12.72" ry="12.72"/>
	
		<ellipse transform="matrix(0.9641 -0.2657 0.2657 0.9641 -278.5311 290.499)" cx="934.532" cy="1174.809" rx="14.217" ry="14.217"/>
	
		<ellipse transform="matrix(0.9412 -0.3379 0.3379 0.9412 -337.3228 393.8786)" cx="962.733" cy="1165.88" rx="15.713" ry="15.713"/>
	<ellipse transform="matrix(0.8958 -0.4445 0.4445 0.8958 -409.1932 561.7183)" cx="993.242" cy="1153.445" rx="17.21" ry="17.21"/>
	
		<ellipse transform="matrix(0.8663 -0.4996 0.4996 0.8663 -430.8205 664.3522)" cx="1025.42" cy="1136.832" rx="18.706" ry="18.706"/>
	
		<ellipse transform="matrix(0.8118 -0.5839 0.5839 0.8118 -452.0897 828.0422)" cx="1058.611" cy="1115.41" rx="20.203" ry="20.203"/>
	<ellipse transform="matrix(0.736 -0.677 0.677 0.736 -448.6231 1026.5961)" cx="1091.979" cy="1088.518" rx="21.699" ry="21.699"/>
	
		<ellipse transform="matrix(0.6599 -0.7514 0.7514 0.6599 -410.7957 1203.9114)" cx="1124.372" cy="1055.697" rx="23.195" ry="23.195"/>
	
		<ellipse transform="matrix(0.544 -0.8391 0.8391 0.544 -326.5546 1432.3928)" cx="1154.575" cy="1016.638" rx="24.692" ry="24.692"/>
	
		<ellipse transform="matrix(0.4465 -0.8948 0.8948 0.4465 -215.2654 1594.355)" cx="1181.137" cy="971.184" rx="26.188" ry="26.188"/>
	
		<ellipse transform="matrix(0.3026 -0.9531 0.9531 0.3026 -37.7339 1787.3774)" cx="1202.555" cy="919.474" rx="27.685" ry="27.685"/>
	
		<ellipse transform="matrix(0.1027 -0.9947 0.9947 0.1027 234.7294 1984.187)" cx="1217.109" cy="861.994" rx="29.181" ry="29.181"/>
	<ellipse transform="matrix(0.0178 -0.9998 0.9998 0.0178 401.722 2008.3895)" cx="1223.12" cy="799.72" rx="30.678" ry="30.678"/>
	
		<ellipse transform="matrix(0.9824 -0.1865 0.1865 0.9824 -115.525 240.2772)" cx="1218.978" cy="733.994" rx="32.174" ry="32.174"/>
	
		<ellipse transform="matrix(0.9509 -0.3095 0.3095 0.9509 -147.2529 405.127)" cx="1203.224" cy="666.665" rx="33.671" ry="33.671"/>
	
		<ellipse transform="matrix(0.8809 -0.4732 0.4732 0.8809 -144.1079 627.433)" cx="1174.819" cy="600.097" rx="35.167" ry="35.167"/>
	
		<ellipse transform="matrix(0.7547 -0.6561 0.6561 0.7547 -74.3237 875.1345)" cx="1133.076" cy="536.954" rx="36.664" ry="36.664"/>
	<ellipse transform="matrix(0.5881 -0.8088 0.8088 0.5881 55.4818 1069.7056)" cx="1077.988" cy="480.38" rx="38.16" ry="38.16"/>
	
		<ellipse transform="matrix(0.4838 -0.8752 0.8752 0.4838 141.9879 1107.9998)" cx="1010.261" cy="433.635" rx="36.664" ry="36.664"/>
	
		<ellipse transform="matrix(0.2952 -0.9554 0.9554 0.2952 275.5764 1175.7181)" cx="934.692" cy="401.073" rx="35.167" ry="35.167"/>
	<ellipse transform="matrix(0.075 -0.9972 0.9972 0.075 409.9489 1210.4733)" cx="857.453" cy="384.263" rx="33.671" ry="33.671"/>
	<ellipse transform="matrix(0.9983 -0.0587 0.0587 0.9983 -21.0585 46.5125)" cx="781.716" cy="381.946" rx="32.174" ry="32.174"/>
	<ellipse transform="matrix(0.9734 -0.2291 0.2291 0.9734 -71.0015 173.1314)" cx="710.068" cy="392.325" rx="30.678" ry="30.678"/>
	
		<ellipse transform="matrix(0.9037 -0.4282 0.4282 0.9037 -114.9893 315.6931)" cx="644.185" cy="413.429" rx="29.181" ry="29.181"/>
	
		<ellipse transform="matrix(0.8554 -0.5179 0.5179 0.8554 -144.8657 367.2664)" cx="585.415" cy="443.117" rx="27.685" ry="27.685"/>
	
		<ellipse transform="matrix(0.7499 -0.6615 0.6615 0.7499 -183.4332 473.3766)" cx="534.366" cy="479.295" rx="26.188" ry="26.188"/>
	
		<ellipse transform="matrix(0.6778 -0.7352 0.7352 0.6778 -224.0231 528.7794)" cx="491.347" cy="520.009" rx="24.692" ry="24.692"/>
	
		<ellipse transform="matrix(0.5516 -0.8341 0.8341 0.5516 -265.4397 633.1386)" cx="456.157" cy="563.453" rx="23.195" ry="23.195"/>
	
		<ellipse transform="matrix(0.4754 -0.8797 0.8797 0.4754 -310.3945 695.8925)" cx="428.352" cy="608.232" rx="21.699" ry="21.699"/>
	<ellipse transform="matrix(0.3304 -0.9439 0.9439 0.3304 -343.4948 821.6957)" cx="407.34" cy="652.925" rx="20.203" ry="20.203"/>
	<ellipse transform="matrix(0.274 -0.9617 0.9617 0.274 -384.9501 883.0663)" cx="392.399" cy="696.494" rx="18.706" ry="18.706"/>
	<ellipse transform="matrix(0.1802 -0.9836 0.9836 0.1802 -412.4064 981.5615)" cx="382.656" cy="738.192" rx="17.21" ry="17.21"/>
	
		<ellipse transform="matrix(0.0599 -0.9982 0.9982 0.0599 -421.2668 1107.4055)" cx="377.274" cy="777.348" rx="15.713" ry="15.713"/>
	<ellipse transform="matrix(0.0094 -1 1 0.0094 -441.5548 1181.264)" cx="375.448" cy="813.5" rx="14.217" ry="14.217"/>
	<ellipse transform="matrix(0.998 -0.064 0.064 0.998 -53.3642 25.8033)" cx="376.34" cy="846.397" rx="12.72" ry="12.72"/>
	<ellipse transform="matrix(0.9915 -0.1302 0.1302 0.9915 -110.8157 56.8287)" cx="379.218" cy="875.932" rx="12.72" ry="12.72"/>
	<ellipse transform="matrix(0.9772 -0.2122 0.2122 0.9772 -182.9709 101.988)" cx="383.732" cy="903.555" rx="14.217" ry="14.217"/>
	
		<ellipse transform="matrix(0.9663 -0.2573 0.2573 0.9663 -226.7228 131.8115)" cx="390.394" cy="932.391" rx="15.713" ry="15.713"/>
	<ellipse transform="matrix(0.945 -0.327 0.327 0.945 -293.2272 183.8192)" cx="400.018" cy="963.892" rx="17.21" ry="17.21"/>
	
		<ellipse transform="matrix(0.8984 -0.4393 0.4393 0.8984 -396.1812 282.8865)" cx="413.201" cy="997.555" rx="18.706" ry="18.706"/>
	
		<ellipse transform="matrix(0.8764 -0.4816 0.4816 0.8764 -444.2511 335.0891)" cx="430.685" cy="1033.021" rx="20.203" ry="20.203"/>
	
		<ellipse transform="matrix(0.8274 -0.5617 0.5617 0.8274 -522.4904 439.0734)" cx="452.996" cy="1069.472" rx="21.699" ry="21.699"/>
	<ellipse transform="matrix(0.7464 -0.6655 0.6655 0.7464 -614.27 600.5031)" cx="480.779" cy="1106.229" rx="23.195" ry="23.195"/>
	<ellipse transform="matrix(0.6913 -0.7226 0.7226 0.6913 -666.5067 724.4)" cx="514.543" cy="1142.242" rx="24.692" ry="24.692"/>
	
		<ellipse transform="matrix(0.5642 -0.8256 0.8256 0.5642 -729.5836 970.6378)" cx="554.644" cy="1176.416" rx="26.188" ry="26.188"/>
	
		<ellipse transform="matrix(0.5009 -0.8655 0.8655 0.5009 -744.9009 1123.0681)" cx="601.273" cy="1207.379" rx="27.685" ry="27.685"/>
	
		<ellipse transform="matrix(0.3358 -0.9419 0.9419 0.3358 -727.4473 1435.7887)" cx="654.362" cy="1233.711" rx="29.181" ry="29.181"/>
	
		<ellipse transform="matrix(0.2562 -0.9666 0.9666 0.2562 -681.1723 1622.4875)" cx="713.64" cy="1253.842" rx="30.678" ry="30.678"/>
	
		<ellipse transform="matrix(0.072 -0.9974 0.9974 0.072 -540.6091 1951.2954)" cx="778.266" cy="1266.156" rx="32.174" ry="32.174"/>
	<ellipse transform="matrix(0.9995 -0.0326 0.0326 0.9995 -40.9319 28.3076)" cx="847.396" cy="1269.058" rx="33.671" ry="33.671"/>
	
		<ellipse transform="matrix(0.9777 -0.2101 0.2101 0.9777 -244.4614 221.3381)" cx="919.378" cy="1261.095" rx="35.167" ry="35.167"/>
	
		<ellipse transform="matrix(0.9117 -0.4109 0.4109 0.9117 -422.236 517.3163)" cx="992.361" cy="1240.943" rx="36.664" ry="36.664"/>
	<ellipse transform="matrix(0.8683 -0.4961 0.4961 0.8683 -458.96 686.9382)" cx="1064.02" cy="1207.688" rx="38.16" ry="38.16"/>
	
		<ellipse transform="matrix(0.7478 -0.664 0.664 0.7478 -485.2906 1044.2053)" cx="1131.682" cy="1160.816" rx="36.664" ry="36.664"/>
	
		<ellipse transform="matrix(0.5867 -0.8098 0.8098 0.5867 -401.2117 1419.6373)" cx="1190.204" cy="1102.883" rx="35.167" ry="35.167"/>
	
		<ellipse transform="matrix(0.5116 -0.8592 0.8592 0.5116 -288.6827 1569.3146)" cx="1236.156" cy="1038.606" rx="33.671" ry="33.671"/>
	
		<ellipse transform="matrix(0.3275 -0.9449 0.9449 0.3275 -63.3203 1852.4623)" cx="1269.67" cy="970.713" rx="32.174" ry="32.174"/>
	
		<ellipse transform="matrix(0.2262 -0.9741 0.9741 0.2262 120.9789 1955.4415)" cx="1291.33" cy="901.571" rx="30.678" ry="30.678"/>
	
		<ellipse transform="matrix(0.0553 -0.9985 0.9985 0.0553 398.1177 2087.3337)" cx="1302.127" cy="833.278" rx="29.181" ry="29.181"/>
	<ellipse transform="matrix(0.9987 -0.0513 0.0513 0.9987 -37.6305 67.8245)" cx="1303.217" cy="767.404" rx="27.685" ry="27.685"/>
	
		<ellipse transform="matrix(0.9784 -0.2066 0.2066 0.9784 -117.7735 283.0323)" cx="1296.015" cy="705.309" rx="26.188" ry="26.188"/>
	
		<ellipse transform="matrix(0.9548 -0.2973 0.2973 0.9548 -134.6025 410.3466)" cx="1281.851" cy="647.724" rx="24.692" ry="24.692"/>
	
		<ellipse transform="matrix(0.8973 -0.4414 0.4414 0.8973 -133.1391 618.3016)" cx="1262.176" cy="595.27" rx="23.195" ry="23.195"/>
	
		<ellipse transform="matrix(0.8657 -0.5006 0.5006 0.8657 -108.1675 693.4902)" cx="1238.31" cy="548.327" rx="21.699" ry="21.699"/>
	<ellipse transform="matrix(0.8114 -0.5844 0.5844 0.8114 -67.7712 803.601)" cx="1211.474" cy="506.827" rx="20.203" ry="20.203"/>
	<ellipse transform="matrix(0.739 -0.6737 0.6737 0.739 -8.4229 919.639)" cx="1182.786" cy="470.691" rx="18.706" ry="18.706"/>
	<ellipse transform="matrix(0.6931 -0.7208 0.7208 0.6931 36.9636 966.1779)" cx="1153.208" cy="439.677" rx="17.21" ry="17.21"/>
	
		<ellipse transform="matrix(0.6338 -0.7735 0.7735 0.6338 91.6805 1020.5582)" cx="1123.685" cy="413.452" rx="15.713" ry="15.713"/>
	
		<ellipse transform="matrix(0.5489 -0.8359 0.8359 0.5489 166.6279 1091.8363)" cx="1094.867" cy="391.542" rx="14.217" ry="14.217"/>
	<ellipse transform="matrix(0.5196 -0.8544 0.8544 0.5196 193.6077 1091.348)" cx="1067.329" cy="373.501" rx="12.72" ry="12.72"/>
	<ellipse transform="matrix(0.4683 -0.8836 0.8836 0.4683 236.7326 1111.0546)" cx="1041.527" cy="358.829" rx="12.72" ry="12.72"/>
	
		<ellipse transform="matrix(0.4181 -0.9084 0.9084 0.4181 276.7598 1124.8375)" cx="1016.389" cy="346.39" rx="14.217" ry="14.217"/>
	
		<ellipse transform="matrix(0.3635 -0.9316 0.9316 0.3635 317.6508 1134.5852)" cx="989.169" cy="334.821" rx="15.713" ry="15.713"/>
	<ellipse transform="matrix(0.2919 -0.9564 0.9564 0.2919 368.6633 1145.7615)" cx="958.172" cy="323.888" rx="17.21" ry="17.21"/>
	<ellipse transform="matrix(0.2316 -0.9728 0.9728 0.2316 403.7092 1139.5802)" cx="923.243" cy="314.23" rx="18.706" ry="18.706"/>
	<ellipse transform="matrix(0.1547 -0.988 0.988 0.1547 444.7375 1132.9564)" cx="884.451" cy="306.58" rx="20.203" ry="20.203"/>
	<ellipse transform="matrix(0.0473 -0.9989 0.9989 0.0473 500.6719 1128.473)" cx="841.928" cy="301.764" rx="21.699" ry="21.699"/>
	<ellipse transform="matrix(0.9998 -0.0216 0.0216 0.9998 -6.3137 17.275)" cx="795.841" cy="300.657" rx="23.195" ry="23.195"/>
	<ellipse transform="matrix(0.9929 -0.1186 0.1186 0.9929 -30.8011 90.7053)" cx="746.614" cy="304.112" rx="24.692" ry="24.692"/>
	<ellipse transform="matrix(0.9736 -0.2283 0.2283 0.9736 -53.129 166.8973)" cx="694.75" cy="313.067" rx="26.188" ry="26.188"/>
	<ellipse transform="matrix(0.945 -0.327 0.327 0.945 -72.1724 227.6493)" cx="640.901" cy="328.452" rx="27.685" ry="27.685"/>
	<ellipse transform="matrix(0.8895 -0.4569 0.4569 0.8895 -95.6569 306.5593)" cx="586.064" cy="351.076" rx="29.181" ry="29.181"/>
	
		<ellipse transform="matrix(0.8407 -0.5415 0.5415 0.8407 -122.0123 348.6089)" cx="531.503" cy="381.681" rx="30.678" ry="30.678"/>
	
		<ellipse transform="matrix(0.7446 -0.6675 0.6675 0.7446 -158.6606 426.9412)" cx="478.556" cy="420.793" rx="32.174" ry="32.174"/>
	<ellipse transform="matrix(0.671 -0.7414 0.7414 0.671 -206.5368 472.1786)" cx="428.829" cy="468.835" rx="33.671" ry="33.671"/>
	
		<ellipse transform="matrix(0.5408 -0.8411 0.8411 0.5408 -265.8817 564.5344)" cx="384.115" cy="525.788" rx="35.167" ry="35.167"/>
	<ellipse transform="matrix(0.434 -0.9009 0.9009 0.434 -336.8234 646.7852)" cx="346.351" cy="591.463" rx="36.664" ry="36.664"/>
	<ellipse transform="matrix(0.2869 -0.958 0.958 0.2869 -410.6231 778.4744)" cx="317.569" cy="665.042" rx="38.16" ry="38.16"/>
	
		<ellipse transform="matrix(0.0814 -0.9967 0.9967 0.0814 -467.5815 983.5559)" cx="299.783" cy="745.438" rx="36.664" ry="36.664"/>
	<ellipse transform="matrix(0.9998 -0.0188 0.0188 0.9998 -15.4952 5.6846)" cx="294.844" cy="827.654" rx="35.167" ry="35.167"/>
	<ellipse transform="matrix(0.9794 -0.2022 0.2022 0.9794 -176.9966 79.8166)" cx="302.238" cy="906.383" rx="33.671" ry="33.671"/>
	<ellipse transform="matrix(0.9515 -0.3077 0.3077 0.9515 -285.9691 146.0917)" cx="320.332" cy="979.97" rx="32.174" ry="32.174"/>
	
		<ellipse transform="matrix(0.8893 -0.4573 0.4573 0.8893 -440.4295 274.694)" cx="347.272" cy="1047.224" rx="30.678" ry="30.678"/>
	
		<ellipse transform="matrix(0.8366 -0.5478 0.5478 0.8366 -544.3544 389.863)" cx="381.309" cy="1107.375" rx="29.181" ry="29.181"/>
	
		<ellipse transform="matrix(0.7434 -0.6689 0.6689 0.7434 -668.0302 579.1369)" cx="420.688" cy="1160.113" rx="27.685" ry="27.685"/>
	
		<ellipse transform="matrix(0.6818 -0.7316 0.7316 0.6818 -734.1974 722.9857)" cx="463.901" cy="1205.38" rx="26.188" ry="26.188"/>
	
		<ellipse transform="matrix(0.5591 -0.8291 0.8291 0.5591 -806.2568 970.5731)" cx="509.44" cy="1243.359" rx="24.692" ry="24.692"/>
	
		<ellipse transform="matrix(0.5097 -0.8603 0.8603 0.5097 -823.7808 1103.1198)" cx="556.013" cy="1274.365" rx="23.195" ry="23.195"/>
	
		<ellipse transform="matrix(0.4238 -0.9057 0.9057 0.4238 -829.3602 1294.2454)" cx="602.599" cy="1299.001" rx="21.699" ry="21.699"/>
	
		<ellipse transform="matrix(0.3103 -0.9506 0.9506 0.3103 -805.7352 1525.1688)" cx="648.197" cy="1317.854" rx="20.203" ry="20.203"/>
	
		<ellipse transform="matrix(0.2576 -0.9663 0.9663 0.2576 -772.8026 1657.4198)" cx="692.167" cy="1331.612" rx="18.706" ry="18.706"/>
	<ellipse transform="matrix(0.181 -0.9835 0.9835 0.181 -717.7481 1820.1609)" cx="733.96" cy="1341.02" rx="17.21" ry="17.21"/>
	<ellipse transform="matrix(0.1089 -0.994 0.994 0.1089 -649.9073 1968.488)" cx="773.059" cy="1346.759" rx="15.713" ry="15.713"/>
	
		<ellipse transform="matrix(0.0325 -0.9995 0.9995 0.0325 -565.8603 2114.469)" cx="809.195" cy="1349.502" rx="14.217" ry="14.217"/>
	<ellipse transform="matrix(0.9998 -0.0182 0.0182 0.9998 -24.3769 15.5156)" cx="842.067" cy="1349.894" rx="12.72" ry="12.72"/>
	<ellipse transform="matrix(0.9974 -0.072 0.072 0.9974 -94.8693 66.2837)" cx="871.63" cy="1348.563" rx="12.72" ry="12.72"/>
	<ellipse transform="matrix(0.9924 -0.123 0.123 0.9924 -158.6791 120.8327)" cx="899.496" cy="1345.836" rx="14.217" ry="14.217"/>
	
		<ellipse transform="matrix(0.9842 -0.1769 0.1769 0.9842 -222.6014 185.4285)" cx="928.853" cy="1341.387" rx="15.713" ry="15.713"/>
	<ellipse transform="matrix(0.9716 -0.2365 0.2365 0.9716 -288.4042 265.2021)" cx="961.082" cy="1334.585" rx="17.21" ry="17.21"/>
	
		<ellipse transform="matrix(0.9542 -0.2993 0.2993 0.9542 -350.9037 358.8441)" cx="995.941" cy="1324.895" rx="18.706" ry="18.706"/>
	
		<ellipse transform="matrix(0.9303 -0.3669 0.3669 0.9303 -409.2108 470.531)" cx="1033.176" cy="1311.738" rx="20.203" ry="20.203"/>
	
		<ellipse transform="matrix(0.8882 -0.4594 0.4594 0.8882 -474.8626 637.3801)" cx="1072.344" cy="1294.502" rx="21.699" ry="21.699"/>
	<ellipse transform="matrix(0.859 -0.512 0.512 0.859 -494.6208 749.1862)" cx="1112.861" cy="1272.593" rx="23.195" ry="23.195"/>
	
		<ellipse transform="matrix(0.8101 -0.5863 0.5863 0.8101 -511.0336 913.1945)" cx="1154.128" cy="1245.45" rx="24.692" ry="24.692"/>
	
		<ellipse transform="matrix(0.7368 -0.6761 0.6761 0.7368 -505.2314 1127.2965)" cx="1195.285" cy="1212.568" rx="26.188" ry="26.188"/>
	
		<ellipse transform="matrix(0.6802 -0.733 0.733 0.6802 -465.1777 1280.855)" cx="1235.329" cy="1173.542" rx="27.685" ry="27.685"/>
	
		<ellipse transform="matrix(0.5595 -0.8288 0.8288 0.5595 -374.0646 1552.155)" cx="1273.292" cy="1128.011" rx="29.181" ry="29.181"/>
	
		<ellipse transform="matrix(0.5044 -0.8635 0.8635 0.5044 -280.7985 1662.4395)" cx="1307.861" cy="1075.842" rx="30.678" ry="30.678"/>
	
		<ellipse transform="matrix(0.3999 -0.9166 0.9166 0.3999 -129.4278 1836.509)" cx="1337.722" cy="1017.091" rx="32.174" ry="32.174"/>
	
		<ellipse transform="matrix(0.2818 -0.9595 0.9595 0.2818 64.2019 1990.1002)" cx="1361.388" cy="952.166" rx="33.671" ry="33.671"/>
	
		<ellipse transform="matrix(0.1585 -0.9874 0.9874 0.1585 288.6261 2101.8457)" cx="1377.422" cy="881.592" rx="35.167" ry="35.167"/>
	<ellipse transform="matrix(0.023 -0.9997 0.9997 0.023 546.5688 2171.5901)" cx="1384.37" cy="806.145" rx="36.664" ry="36.664"/>
	<ellipse transform="matrix(0.9843 -0.1764 0.1764 0.9843 -106.6344 254.9791)" cx="1380.792" cy="727.246" rx="38.16" ry="38.16"/>
	
		<ellipse transform="matrix(0.9662 -0.2578 0.2578 0.9662 -120.4873 373.8779)" cx="1365.422" cy="646.379" rx="36.664" ry="36.664"/>
	<ellipse transform="matrix(0.899 -0.4379 0.4379 0.899 -113.8399 643.5587)" cx="1338.568" cy="568.629" rx="35.167" ry="35.167"/>
	
		<ellipse transform="matrix(0.8558 -0.5172 0.5172 0.8558 -69.9981 745.5362)" cx="1302.482" cy="498.344" rx="33.671" ry="33.671"/>
	<ellipse transform="matrix(0.752 -0.6591 0.6591 0.752 24.6844 938.0533)" cx="1259.116" cy="436.218" rx="32.174" ry="32.174"/>
	<ellipse transform="matrix(0.6952 -0.7188 0.7188 0.6952 93.8453 986.6839)" cx="1210.338" cy="382.687" rx="30.678" ry="30.678"/>
	
		<ellipse transform="matrix(0.5623 -0.8269 0.8269 0.5623 227.5711 1105.2994)" cx="1157.875" cy="337.681" rx="29.181" ry="29.181"/>
	<ellipse transform="matrix(0.5092 -0.8606 0.8606 0.5092 282.443 1097.155)" cx="1103.198" cy="300.934" rx="27.685" ry="27.685"/>
	<ellipse transform="matrix(0.414 -0.9103 0.9103 0.414 366.3742 1113.1344)" cx="1047.74" cy="272.01" rx="26.188" ry="26.188"/>
	<ellipse transform="matrix(0.2992 -0.9542 0.9542 0.2992 456.8533 1122.573)" cx="992.647" cy="250.272" rx="24.692" ry="24.692"/>
	
		<ellipse transform="matrix(0.2262 -0.9741 0.9741 0.2262 497.5065 1096.2817)" cx="938.774" cy="235.001" rx="23.195" ry="23.195"/>
	
		<ellipse transform="matrix(0.1375 -0.9905 0.9905 0.1375 541.6909 1072.8998)" cx="886.938" cy="225.394" rx="21.699" ry="21.699"/>
	
		<ellipse transform="matrix(0.0371 -0.9993 0.9993 0.0371 586.1302 1049.6515)" cx="837.743" cy="220.675" rx="20.203" ry="20.203"/>
	<ellipse transform="matrix(0.9997 -0.0259 0.0259 0.9997 -5.427 20.5492)" cx="791.614" cy="220.054" rx="18.706" ry="18.706"/>
	<ellipse transform="matrix(0.9951 -0.0984 0.0984 0.9951 -18.2829 74.7879)" cx="748.905" cy="222.708" rx="17.21" ry="17.21"/>
	<ellipse transform="matrix(0.9863 -0.1652 0.1652 0.9863 -27.9025 120.4075)" cx="709.756" cy="227.911" rx="15.713" ry="15.713"/>
	<ellipse transform="matrix(0.9727 -0.2322 0.2322 0.9727 -36.1327 162.9769)" cx="674.284" cy="234.986" rx="14.217" ry="14.217"/>
	<ellipse transform="matrix(0.96 -0.2799 0.2799 0.96 -42.428 189.5695)" cx="642.433" cy="243.317" rx="12.72" ry="12.72"/>
	<ellipse transform="matrix(0.9448 -0.3276 0.3276 0.9448 -48.7698 215.1426)" cx="614.179" cy="252.325" rx="12.72" ry="12.72"/>
	<ellipse transform="matrix(0.9282 -0.372 0.372 0.9282 -55.3044 237.5124)" cx="587.98" cy="262.105" rx="14.217" ry="14.217"/>
	<ellipse transform="matrix(0.9084 -0.4182 0.4182 0.9084 -63.114 259.588)" cx="560.769" cy="273.807" rx="15.713" ry="15.713"/>
	<ellipse transform="matrix(0.88 -0.475 0.475 0.88 -73.2153 287.0053)" cx="531.308" cy="288.378" rx="17.21" ry="17.21"/>
	<ellipse transform="matrix(0.8533 -0.5214 0.5214 0.8533 -86.3905 305.5207)" cx="499.838" cy="306.311" rx="18.706" ry="18.706"/>
	
		<ellipse transform="matrix(0.8169 -0.5768 0.5768 0.8169 -103.7333 329.3459)" cx="466.791" cy="328.033" rx="20.203" ry="20.203"/>
	<ellipse transform="matrix(0.748 -0.6637 0.6637 0.748 -125.8587 376.3871)" cx="432.761" cy="353.945" rx="21.699" ry="21.699"/>
	
		<ellipse transform="matrix(0.7212 -0.6927 0.6927 0.7212 -155.3454 383.0829)" cx="398.284" cy="384.549" rx="23.195" ry="23.195"/>
	<ellipse transform="matrix(0.6619 -0.7496 0.7496 0.6619 -191.8548 415.0255)" cx="364.11" cy="420.175" rx="24.692" ry="24.692"/>
	
		<ellipse transform="matrix(0.5562 -0.8311 0.8311 0.5562 -236.3835 479.7769)" cx="330.985" cy="461.196" rx="26.188" ry="26.188"/>
	
		<ellipse transform="matrix(0.5147 -0.8574 0.8574 0.5147 -289.8053 503.5951)" cx="299.929" cy="507.786" rx="27.685" ry="27.685"/>
	
		<ellipse transform="matrix(0.4281 -0.9038 0.9038 0.4281 -350.5724 566.0786)" cx="271.958" cy="560.018" rx="29.181" ry="29.181"/>
	
		<ellipse transform="matrix(0.3053 -0.9523 0.9523 0.3053 -415.9786 665.5557)" cx="248.155" cy="617.872" rx="30.678" ry="30.678"/>
	<ellipse transform="matrix(0.2265 -0.974 0.974 0.2265 -485.6267 750.6163)" cx="229.774" cy="681.059" rx="32.174" ry="32.174"/>
	<ellipse transform="matrix(0.0673 -0.9977 0.9977 0.0673 -544.1344 916.1813)" cx="217.985" cy="749.14" rx="33.671" ry="33.671"/>
	<ellipse transform="matrix(1 -0.0063 0.0063 1 -5.158 1.3615)" cx="214.081" cy="821.516" rx="35.167" ry="35.167"/>
	<ellipse transform="matrix(0.9828 -0.1849 0.1849 0.9828 -162.0739 56.0026)" cx="219.248" cy="897.038" rx="36.664" ry="36.664"/>
	<ellipse transform="matrix(0.966 -0.2584 0.2584 0.966 -243.8372 93.719)" cx="234.637" cy="974.541" rx="38.16" ry="38.16"/>
	
		<ellipse transform="matrix(0.9007 -0.4345 0.4345 0.9007 -431.3683 218.0414)" cx="261.183" cy="1052.444" rx="36.664" ry="36.664"/>
	
		<ellipse transform="matrix(0.8622 -0.5065 0.5065 0.8622 -529.3108 306.064)" cx="297.987" cy="1126.072" rx="35.167" ry="35.167"/>
	
		<ellipse transform="matrix(0.7568 -0.6536 0.6536 0.7568 -695.5219 513.425)" cx="342.279" cy="1191.489" rx="33.671" ry="33.671"/>
	
		<ellipse transform="matrix(0.7085 -0.7057 0.7057 0.7085 -766.5923 640.6895)" cx="392.278" cy="1248.328" rx="32.174" ry="32.174"/>
	
		<ellipse transform="matrix(0.6212 -0.7837 0.7837 0.6212 -847.0266 840.9489)" cx="446.336" cy="1296.61" rx="30.678" ry="30.678"/>
	
		<ellipse transform="matrix(0.5233 -0.8522 0.8522 0.5233 -899.1575 1065.6121)" cx="502.854" cy="1336.463" rx="29.181" ry="29.181"/>
	
		<ellipse transform="matrix(0.4366 -0.8997 0.8997 0.4366 -915.2309 1275.1998)" cx="560.476" cy="1368.3" rx="27.685" ry="27.685"/>
	
		<ellipse transform="matrix(0.3111 -0.9504 0.9504 0.3111 -897.8721 1546.7487)" cx="618.025" cy="1392.734" rx="26.188" ry="26.188"/>
	
		<ellipse transform="matrix(0.2524 -0.9676 0.9676 0.2524 -860.4446 1707.1094)" cx="674.588" cy="1410.419" rx="24.692" ry="24.692"/>
	
		<ellipse transform="matrix(0.1649 -0.9863 0.9863 0.1649 -793.5786 1906.9618)" cx="729.372" cy="1422.131" rx="23.195" ry="23.195"/>
	
		<ellipse transform="matrix(0.0505 -0.9987 0.9987 0.0505 -684.6683 2137.0596)" cx="781.617" cy="1428.62" rx="21.699" ry="21.699"/>
	<ellipse transform="matrix(0.0017 -1 1 0.0017 -601.0494 2259.2786)" cx="831.002" cy="1430.666" rx="20.203" ry="20.203"/>
	<ellipse transform="matrix(0.9974 -0.0715 0.0715 0.9974 -99.9754 66.4017)" cx="877.114" cy="1429.06" rx="18.706" ry="18.706"/>
	<ellipse transform="matrix(0.9902 -0.1394 0.1394 0.9902 -189.5462 142.062)" cx="919.67" cy="1424.552" rx="17.21" ry="17.21"/>
	<ellipse transform="matrix(0.9753 -0.2207 0.2207 0.9753 -289.2887 246.5502)" cx="958.64" cy="1417.81" rx="15.713" ry="15.713"/>
	<ellipse transform="matrix(0.9661 -0.258 0.258 0.9661 -330.0481 304.2118)" cx="993.916" cy="1409.474" rx="14.217" ry="14.217"/>
	
		<ellipse transform="matrix(0.9514 -0.3079 0.3079 0.9514 -381.3342 383.8548)" cx="1025.537" cy="1400.145" rx="12.72" ry="12.72"/>
	
		<ellipse transform="matrix(0.9359 -0.3522 0.3522 0.9359 -422.1576 460.0787)" cx="1053.485" cy="1390.374" rx="12.72" ry="12.72"/>
	
		<ellipse transform="matrix(0.9193 -0.3935 0.3935 0.9193 -455.8686 536.0369)" cx="1079.505" cy="1379.921" rx="14.217" ry="14.217"/>
	
		<ellipse transform="matrix(0.8881 -0.4597 0.4597 0.8881 -504.8755 661.7079)" cx="1106.422" cy="1367.648" rx="15.713" ry="15.713"/>
	<ellipse transform="matrix(0.8756 -0.483 0.483 0.8756 -512.0309 716.8586)" cx="1135.702" cy="1352.492" rx="17.21" ry="17.21"/>
	<ellipse transform="matrix(0.8468 -0.532 0.532 0.8468 -530.9056 825.2297)" cx="1166.902" cy="1334.11" rx="18.706" ry="18.706"/>
	
		<ellipse transform="matrix(0.812 -0.5836 0.5836 0.812 -540.2208 946.7994)" cx="1199.718" cy="1312.048" rx="20.203" ry="20.203"/>
	
		<ellipse transform="matrix(0.7707 -0.6372 0.6372 0.7707 -536.4885 1080.98)" cx="1233.654" cy="1285.879" rx="21.699" ry="21.699"/>
	
		<ellipse transform="matrix(0.7214 -0.6925 0.6925 0.7214 -515.9991 1227.7488)" cx="1268.066" cy="1255.25" rx="23.195" ry="23.195"/>
	
		<ellipse transform="matrix(0.6666 -0.7455 0.7455 0.6666 -474.9605 1377.6052)" cx="1302.409" cy="1219.714" rx="24.692" ry="24.692"/>
	
		<ellipse transform="matrix(0.6027 -0.7979 0.7979 0.6027 -410.0909 1534.326)" cx="1335.887" cy="1179.02" rx="26.188" ry="26.188"/>
	
		<ellipse transform="matrix(0.5234 -0.8521 0.8521 0.5234 -313.4977 1705.2657)" cx="1367.652" cy="1132.88" rx="27.685" ry="27.685"/>
	
		<ellipse transform="matrix(0.4496 -0.8933 0.8933 0.4496 -197.0177 1842.774)" cx="1396.702" cy="1081.245" rx="29.181" ry="29.181"/>
	
		<ellipse transform="matrix(0.3193 -0.9476 0.9476 0.3193 -2.5383 2044.7168)" cx="1422.05" cy="1024.125" rx="30.678" ry="30.678"/>
	<ellipse transform="matrix(0.2624 -0.965 0.965 0.2624 136.2868 2101.301)" cx="1442.604" cy="961.505" rx="32.174" ry="32.174"/>
	
		<ellipse transform="matrix(0.1577 -0.9875 0.9875 0.1577 344.6586 2191.8252)" cx="1457.168" cy="893.875" rx="33.671" ry="33.671"/>
	
		<ellipse transform="matrix(0.0324 -0.9995 0.9995 0.0324 595.6664 2258.9849)" cx="1464.552" cy="821.843" rx="35.167" ry="35.167"/>
	
		<ellipse transform="matrix(0.9975 -0.0714 0.0714 0.9975 -49.5117 106.3414)" cx="1463.571" cy="746.123" rx="36.664" ry="36.664"/>
	<ellipse transform="matrix(0.9763 -0.2164 0.2164 0.9763 -110.083 330.2694)" cx="1453.15" cy="667.834" rx="38.16" ry="38.16"/>
	
		<ellipse transform="matrix(0.9491 -0.3149 0.3149 0.9491 -112.386 480.9154)" cx="1432.236" cy="588.291" rx="36.664" ry="36.664"/>
	<ellipse transform="matrix(0.889 -0.458 0.458 0.889 -78.8644 698.6667)" cx="1401.451" cy="511.978" rx="35.167" ry="35.167"/>
	
		<ellipse transform="matrix(0.8428 -0.5382 0.5382 0.8428 -24.1413 803.1068)" cx="1363.013" cy="442.888" rx="33.671" ry="33.671"/>
	<ellipse transform="matrix(0.7484 -0.6633 0.6633 0.7484 78.7882 970.6226)" cx="1318.612" cy="381.474" rx="32.174" ry="32.174"/>
	
		<ellipse transform="matrix(0.7002 -0.7139 0.7139 0.7002 146.5056 1004.8253)" cx="1269.784" cy="327.956" rx="30.678" ry="30.678"/>
	
		<ellipse transform="matrix(0.6216 -0.7833 0.7833 0.6216 239.7931 1060.8176)" cx="1217.97" cy="282.194" rx="29.181" ry="29.181"/>
	
		<ellipse transform="matrix(0.5281 -0.8492 0.8492 0.5281 342.3729 1103.8348)" cx="1164.364" cy="243.867" rx="27.685" ry="27.685"/>
	
		<ellipse transform="matrix(0.4577 -0.8891 0.8891 0.4577 412.951 1102.2877)" cx="1110.125" cy="212.609" rx="26.188" ry="26.188"/>
	
		<ellipse transform="matrix(0.3764 -0.9265 0.9265 0.3764 484.691 1095.7882)" cx="1056.293" cy="187.867" rx="24.692" ry="24.692"/>
	<ellipse transform="matrix(0.2867 -0.958 0.958 0.2867 554.005 1082.0972)" cx="1003.637" cy="169.031" rx="23.195" ry="23.195"/>
	<ellipse transform="matrix(0.2198 -0.9756 0.9756 0.2198 591.7447 1050.7207)" cx="952.74" cy="155.426" rx="21.699" ry="21.699"/>
	
		<ellipse transform="matrix(0.1468 -0.9892 0.9892 0.1468 626.6985 1019.2455)" cx="904.158" cy="146.355" rx="20.203" ry="20.203"/>
	<ellipse transform="matrix(0.0482 -0.9988 0.9988 0.0482 675.957 991.7032)" cx="858.333" cy="141.172" rx="18.706" ry="18.706"/>
	<ellipse transform="matrix(0.0129 -0.9999 0.9999 0.0129 665.8314 952.9213)" cx="815.553" cy="139.229" rx="17.21" ry="17.21"/>
	<ellipse transform="matrix(0.9989 -0.046 0.046 0.9989 -5.6085 35.8153)" cx="776.077" cy="139.877" rx="15.713" ry="15.713"/>
	<ellipse transform="matrix(0.995 -0.1 0.1 0.995 -10.5418 74.6962)" cx="739.93" cy="142.517" rx="14.217" ry="14.217"/>
	<ellipse transform="matrix(0.9888 -0.149 0.149 0.9888 -13.9488 106.9911)" cx="707.258" cy="146.612" rx="12.72" ry="12.72"/>
	<ellipse transform="matrix(0.9812 -0.1928 0.1928 0.9812 -16.5202 133.5994)" cx="678.085" cy="151.669" rx="12.72" ry="12.72"/>
	<ellipse transform="matrix(0.9714 -0.2374 0.2374 0.9714 -18.8208 159.0104)" cx="650.736" cy="157.642" rx="14.217" ry="14.217"/>
	<ellipse transform="matrix(0.961 -0.2766 0.2766 0.961 -21.4217 178.5172)" cx="622.123" cy="165.197" rx="15.713" ry="15.713"/>
	<ellipse transform="matrix(0.9463 -0.3232 0.3232 0.9463 -24.8758 200.3146)" cx="590.738" cy="175.062" rx="17.21" ry="17.21"/>
	<ellipse transform="matrix(0.9275 -0.3738 0.3738 0.9275 -29.8049 221.7216)" cx="556.737" cy="187.703" rx="18.706" ry="18.706"/>
	<ellipse transform="matrix(0.8899 -0.4561 0.4561 0.8899 -35.5353 259.8125)" cx="520.557" cy="203.535" rx="20.203" ry="20.203"/>
	<ellipse transform="matrix(0.8745 -0.485 0.485 0.8745 -47.6552 261.9732)" cx="482.458" cy="223.084" rx="21.699" ry="21.699"/>
	<ellipse transform="matrix(0.8395 -0.5433 0.5433 0.8395 -63.0021 280.2419)" cx="442.942" cy="246.782" rx="23.195" ry="23.195"/>
	<ellipse transform="matrix(0.7976 -0.6032 0.6032 0.7976 -84.4833 298.465)" cx="402.473" cy="275.113" rx="24.692" ry="24.692"/>
	<ellipse transform="matrix(0.7341 -0.679 0.679 0.7341 -113.3325 327.6496)" cx="361.696" cy="308.534" rx="26.188" ry="26.188"/>
	<ellipse transform="matrix(0.6903 -0.7235 0.7235 0.6903 -151.8112 340.122)" cx="321.411" cy="347.4" rx="27.685" ry="27.685"/>
	
		<ellipse transform="matrix(0.6247 -0.7809 0.7809 0.6247 -200.0821 367.6494)" cx="282.433" cy="391.975" rx="29.181" ry="29.181"/>
	<ellipse transform="matrix(0.5329 -0.8462 0.8462 0.5329 -259.806 414.5892)" cx="245.618" cy="442.618" rx="30.678" ry="30.678"/>
	<ellipse transform="matrix(0.4664 -0.8846 0.8846 0.4664 -328.4848 454.0999)" cx="212.13" cy="499.309" rx="32.174" ry="32.174"/>
	<ellipse transform="matrix(0.3259 -0.9454 0.9454 0.3259 -408.024 551.9285)" cx="182.998" cy="562.069" rx="33.671" ry="33.671"/>
	<ellipse transform="matrix(0.2732 -0.9619 0.9619 0.2732 -490.691 611.7267)" cx="159.495" cy="630.603" rx="35.167" ry="35.167"/>
	
		<ellipse transform="matrix(0.1657 -0.9862 0.9862 0.1657 -575.5447 728.5729)" cx="142.841" cy="704.454" rx="36.664" ry="36.664"/>
	<ellipse transform="matrix(0.0344 -0.9994 0.9994 0.0344 -652.9267 890.2745)" cx="134.26" cy="783.031" rx="38.16" ry="38.16"/>
	<ellipse transform="matrix(0.9976 -0.069 0.069 0.9976 -59.3593 11.3732)" cx="135.019" cy="865.286" rx="36.664" ry="36.664"/>
	<ellipse transform="matrix(0.9767 -0.2146 0.2146 0.9767 -199.7908 53.2955)" cx="145.58" cy="946.869" rx="35.167" ry="35.167"/>
	
		<ellipse transform="matrix(0.9543 -0.2989 0.2989 0.9543 -298.4044 96.0694)" cx="164.847" cy="1023.512" rx="33.671" ry="33.671"/>
	
		<ellipse transform="matrix(0.8964 -0.4433 0.4433 0.8964 -465.319 198.2483)" cx="191.376" cy="1094.401" rx="32.174" ry="32.174"/>
	<ellipse transform="matrix(0.8687 -0.4954 0.4954 0.8687 -544.855 263.1778)" cx="223.92" cy="1159.173" rx="30.678" ry="30.678"/>
	<ellipse transform="matrix(0.8153 -0.579 0.579 0.8153 -656.7178 376.0331)" cx="261.093" cy="1217.456" rx="29.181" ry="29.181"/>
	
		<ellipse transform="matrix(0.7385 -0.6743 0.6743 0.7385 -776.9196 535.3494)" cx="301.689" cy="1269.245" rx="27.685" ry="27.685"/>
	
		<ellipse transform="matrix(0.6949 -0.7191 0.7191 0.6949 -840.2571 648.9899)" cx="344.66" cy="1314.679" rx="26.188" ry="26.188"/>
	
		<ellipse transform="matrix(0.6315 -0.7753 0.7753 0.6315 -906.5135 800.5005)" cx="388.981" cy="1354.028" rx="24.692" ry="24.692"/>
	
		<ellipse transform="matrix(0.5416 -0.8407 0.8407 0.5416 -967.6658 1000.8159)" cx="433.782" cy="1387.628" rx="23.195" ry="23.195"/>
	
		<ellipse transform="matrix(0.5033 -0.8641 0.8641 0.5033 -985.8859 1116.4415)" cx="478.235" cy="1415.83" rx="21.699" ry="21.699"/>
	
		<ellipse transform="matrix(0.4415 -0.8972 0.8972 0.4415 -999.9188 1271.8638)" cx="521.743" cy="1439.178" rx="20.203" ry="20.203"/>
	
		<ellipse transform="matrix(0.3817 -0.9243 0.9243 0.3817 -999.2059 1422.604)" cx="563.721" cy="1458.158" rx="18.706" ry="18.706"/>
	
		<ellipse transform="matrix(0.3003 -0.9538 0.9538 0.3003 -982.8478 1606.6914)" cx="603.719" cy="1473.269" rx="17.21" ry="17.21"/>
	
		<ellipse transform="matrix(0.2705 -0.9627 0.9627 0.2705 -961.7689 1700.7499)" cx="641.386" cy="1485.016" rx="15.713" ry="15.713"/>
	
		<ellipse transform="matrix(0.2209 -0.9753 0.9753 0.2209 -929.9363 1823.7648)" cx="676.532" cy="1493.933" rx="14.217" ry="14.217"/>
	
		<ellipse transform="matrix(0.1752 -0.9845 0.9845 0.1752 -892.6566 1935.3464)" cx="708.785" cy="1500.456" rx="12.72" ry="12.72"/>
	<ellipse transform="matrix(0.1337 -0.991 0.991 0.1337 -852.1396 2035.2609)" cx="738.061" cy="1505.038" rx="12.72" ry="12.72"/>
	
		<ellipse transform="matrix(0.0941 -0.9956 0.9956 0.0941 -807.6728 2128.8901)" cx="765.924" cy="1508.237" rx="14.217" ry="14.217"/>
	
		<ellipse transform="matrix(0.0348 -0.9994 0.9994 0.0348 -741.694 2252.8418)" cx="795.475" cy="1510.404" rx="15.713" ry="15.713"/>
	<ellipse transform="matrix(0.0052 -1 1 0.0052 -687.3011 2331.8064)" cx="828.331" cy="1511.345" rx="17.21" ry="17.21"/>
	<ellipse transform="matrix(0.999 -0.0457 0.0457 0.999 -68.1671 41.1105)" cx="864.549" cy="1510.616" rx="18.706" ry="18.706"/>
	<ellipse transform="matrix(0.9949 -0.1013 0.1013 0.9949 -148.0482 99.302)" cx="903.96" cy="1507.716" rx="20.203" ry="20.203"/>
	
		<ellipse transform="matrix(0.9869 -0.1613 0.1613 0.9869 -229.9182 172.3471)" cx="946.419" cy="1502.097" rx="21.699" ry="21.699"/>
	<ellipse transform="matrix(0.9723 -0.2337 0.2337 0.9723 -321.4778 273.0796)" cx="991.66" cy="1493.18" rx="23.195" ry="23.195"/>
	
		<ellipse transform="matrix(0.9563 -0.2925 0.2925 0.9563 -387.5504 368.7391)" cx="1039.336" cy="1480.388" rx="24.692" ry="24.692"/>
	
		<ellipse transform="matrix(0.9321 -0.3623 0.3623 0.9321 -456.1077 493.992)" cx="1089.103" cy="1463.139" rx="26.188" ry="26.188"/>
	<ellipse transform="matrix(0.888 -0.4599 0.4599 0.888 -534.851 685.8384)" cx="1140.426" cy="1440.832" rx="27.685" ry="27.685"/>
	
		<ellipse transform="matrix(0.8613 -0.5082 0.5082 0.8613 -552.4841 802.0967)" cx="1192.704" cy="1412.858" rx="29.181" ry="29.181"/>
	
		<ellipse transform="matrix(0.8137 -0.5813 0.5813 0.8137 -569.4919 980.7087)" cx="1245.151" cy="1378.757" rx="30.678" ry="30.678"/>
	
		<ellipse transform="matrix(0.7382 -0.6745 0.6745 0.7382 -563.0809 1225.0637)" cx="1296.923" cy="1338.047" rx="32.174" ry="32.174"/>
	
		<ellipse transform="matrix(0.6899 -0.7239 0.7239 0.6899 -516.3906 1375.1738)" cx="1346.995" cy="1290.351" rx="33.671" ry="33.671"/>
	
		<ellipse transform="matrix(0.6136 -0.7896 0.7896 0.6136 -436.8146 1578.254)" cx="1394.28" cy="1235.472" rx="35.167" ry="35.167"/>
	
		<ellipse transform="matrix(0.5208 -0.8537 0.8537 0.5208 -312.8221 1789.3461)" cx="1437.517" cy="1173.331" rx="36.664" ry="36.664"/>
	
		<ellipse transform="matrix(0.4308 -0.9024 0.9024 0.4308 -156.5201 1959.8204)" cx="1475.41" cy="1103.993" rx="38.16" ry="38.16"/>
	
		<ellipse transform="matrix(0.3004 -0.9538 0.9538 0.3004 73.6748 2156.1033)" cx="1506.581" cy="1027.83" rx="36.664" ry="36.664"/>
	
		<ellipse transform="matrix(0.2156 -0.9765 0.9765 0.2156 272.9624 2237.0403)" cx="1528.854" cy="948.624" rx="35.167" ry="35.167"/>
	<ellipse transform="matrix(0.0627 -0.998 0.998 0.0627 576.1152 2354.6926)" cx="1541.676" cy="870.628" rx="33.671" ry="33.671"/>
	<ellipse transform="matrix(0.0034 -1 1 0.0034 745.5505 2338.2168)" cx="1545.906" cy="795.051" rx="32.174" ry="32.174"/>
	
		<ellipse transform="matrix(0.9954 -0.0956 0.0956 0.9954 -62.0386 150.8237)" cx="1542.574" cy="722.681" rx="30.678" ry="30.678"/>
	
		<ellipse transform="matrix(0.9764 -0.2161 0.2161 0.9764 -105.1674 346.7101)" cx="1532.703" cy="654.219" rx="29.181" ry="29.181"/>
	
		<ellipse transform="matrix(0.9607 -0.2776 0.2776 0.9607 -104.2238 444.4327)" cx="1517.31" cy="590.261" rx="27.685" ry="27.685"/>
	
		<ellipse transform="matrix(0.9335 -0.3585 0.3585 0.9335 -90.8041 572.1381)" cx="1497.394" cy="530.926" rx="26.188" ry="26.188"/>
	
		<ellipse transform="matrix(0.8883 -0.4593 0.4593 0.8883 -54.1731 730.2599)" cx="1473.915" cy="476.479" rx="24.692" ry="24.692"/>
	
		<ellipse transform="matrix(0.8655 -0.5009 0.5009 0.8655 -19.1546 782.6079)" cx="1447.747" cy="426.972" rx="23.195" ry="23.195"/>
	<ellipse transform="matrix(0.8275 -0.5615 0.5615 0.8275 30.2441 863.0557)" cx="1419.729" cy="382.306" rx="21.699" ry="21.699"/>
	<ellipse transform="matrix(0.7879 -0.6158 0.6158 0.7879 84.0776 928.9022)" cx="1390.646" cy="342.385" rx="20.203" ry="20.203"/>
	
		<ellipse transform="matrix(0.7335 -0.6797 0.6797 0.7335 154.1145 1007.0073)" cx="1361.15" cy="306.983" rx="18.706" ry="18.706"/>
	<ellipse transform="matrix(0.7077 -0.7066 0.7066 0.7077 194.4547 1021.6285)" cx="1331.809" cy="275.826" rx="17.21" ry="17.21"/>
	<ellipse transform="matrix(0.669 -0.7433 0.7433 0.669 246.5485 1050.8671)" cx="1303.16" cy="248.615" rx="15.713" ry="15.713"/>
	
		<ellipse transform="matrix(0.6318 -0.7751 0.7751 0.6318 295.2291 1071.6372)" cx="1275.661" cy="225.049" rx="14.217" ry="14.217"/>
	<ellipse transform="matrix(0.5966 -0.8025 0.8025 0.5966 339.7518 1085.5341)" cx="1249.676" cy="204.81" rx="12.72" ry="12.72"/>
	<ellipse transform="matrix(0.5638 -0.8259 0.8259 0.5638 379.5902 1094.011)" cx="1225.565" cy="187.623" rx="12.72" ry="12.72"/>
	
		<ellipse transform="matrix(0.5232 -0.8522 0.8522 0.5232 426.3376 1106.5566)" cx="1202.112" cy="172.255" rx="14.217" ry="14.217"/>
	
		<ellipse transform="matrix(0.4975 -0.8674 0.8674 0.4975 455.0744 1099.6152)" cx="1176.704" cy="156.996" rx="15.713" ry="15.713"/>
	<ellipse transform="matrix(0.4587 -0.8886 0.8886 0.4587 495.7595 1096.3759)" cx="1147.811" cy="141.257" rx="17.21" ry="17.21"/>
	<ellipse transform="matrix(0.415 -0.9098 0.9098 0.415 538.3354 1088.1274)" cx="1115.295" cy="125.454" rx="18.706" ry="18.706"/>
	
		<ellipse transform="matrix(0.3659 -0.9307 0.9307 0.3659 581.7581 1073.8674)" cx="1078.924" cy="110.017" rx="20.203" ry="20.203"/>
	<ellipse transform="matrix(0.2933 -0.956 0.956 0.2933 642.7529 1060.5458)" cx="1038.709" cy="95.528" rx="21.699" ry="21.699"/>
	<ellipse transform="matrix(0.2518 -0.9678 0.9678 0.2518 664.1761 1024.1768)" cx="994.47" cy="82.535" rx="23.195" ry="23.195"/>
	<ellipse transform="matrix(0.1874 -0.9823 0.9823 0.1874 698.5737 987.7921)" cx="946.306" cy="71.68" rx="24.692" ry="24.692"/>
	<ellipse transform="matrix(0.1175 -0.9931 0.9931 0.1175 725.9561 944.2267)" cx="894.267" cy="63.639" rx="26.188" ry="26.188"/>
	<ellipse transform="matrix(0.0296 -0.9996 0.9996 0.0296 754.6164 895.5726)" cx="838.533" cy="59.155" rx="27.685" ry="27.685"/>
	<ellipse transform="matrix(0.9993 -0.0368 0.0368 0.9993 -1.6432 28.7232)" cx="779.256" cy="58.988" rx="29.181" ry="29.181"/>
	<ellipse transform="matrix(0.9928 -0.12 0.12 0.9928 -2.4862 86.4728)" cx="716.913" cy="63.884" rx="30.678" ry="30.678"/>
	<ellipse transform="matrix(0.9744 -0.2249 0.2249 0.9744 -0.0859 148.5556)" cx="651.929" cy="74.655" rx="32.174" ry="32.174"/>
	<ellipse transform="matrix(0.9551 -0.2962 0.2962 0.9551 -1.0198 177.4214)" cx="585.01" cy="92.076" rx="33.671" ry="33.671"/>
	<ellipse transform="matrix(0.9222 -0.3867 0.3867 0.9222 -4.969 208.9739)" cx="516.906" cy="116.837" rx="35.167" ry="35.167"/>
	<ellipse transform="matrix(0.8763 -0.4817 0.4817 0.8763 -16.5736 234.6377)" cx="448.649" cy="149.594" rx="36.664" ry="36.664"/>
	<ellipse transform="matrix(0.8238 -0.5669 0.5669 0.8238 -41.0657 249.7729)" cx="381.259" cy="190.946" rx="38.16" ry="38.16"/>
	<ellipse transform="matrix(0.7382 -0.6746 0.6746 0.7382 -79.9522 276.3888)" cx="316.115" cy="241.203" rx="36.664" ry="36.664"/>
	
		<ellipse transform="matrix(0.6816 -0.7317 0.7317 0.6816 -136.4996 282.8684)" cx="256.811" cy="298.294" rx="35.167" ry="35.167"/>
	
		<ellipse transform="matrix(0.6019 -0.7986 0.7986 0.6019 -204.5869 307.3826)" cx="205.983" cy="358.873" rx="33.671" ry="33.671"/>
	
		<ellipse transform="matrix(0.5165 -0.8563 0.8563 0.5165 -281.8625 343.8006)" cx="163.516" cy="421.499" rx="32.174" ry="32.174"/>
	
		<ellipse transform="matrix(0.4356 -0.9001 0.9001 0.4356 -363.9725 389.8358)" cx="128.881" cy="485.161" rx="30.678" ry="30.678"/>
	
		<ellipse transform="matrix(0.3136 -0.9496 0.9496 0.3136 -451.3242 473.1152)" cx="101.592" cy="548.739" rx="29.181" ry="29.181"/>
	<ellipse transform="matrix(0.2696 -0.963 0.963 0.2696 -529.4151 524.5557)" cx="81.103" cy="611.292" rx="27.685" ry="27.685"/>
	<ellipse transform="matrix(0.1904 -0.9817 0.9817 0.1904 -605.8425 609.6183)" cx="66.697" cy="672.138" rx="26.188" ry="26.188"/>
	<ellipse transform="matrix(0.1139 -0.9935 0.9935 0.1139 -674.8489 704.7585)" cx="57.664" cy="730.701" rx="24.692" ry="24.692"/>
	<ellipse transform="matrix(0.0285 -0.9996 0.9996 0.0285 -734.3749 817.4171)" cx="53.326" cy="786.502" rx="23.195" ry="23.195"/>
	<ellipse transform="matrix(0.9996 -0.028 0.028 0.9996 -23.4607 1.8112)" cx="52.99" cy="839.236" rx="21.699" ry="21.699"/>
	<ellipse transform="matrix(0.9958 -0.0919 0.0919 0.9958 -81.4283 8.903)" cx="55.943" cy="888.497" rx="20.203" ry="20.203"/>
	<ellipse transform="matrix(0.9885 -0.1515 0.1515 0.9885 -140.8564 20.1146)" cx="61.554" cy="934.287" rx="18.706" ry="18.706"/>
	<ellipse transform="matrix(0.9744 -0.2249 0.2249 0.9744 -217.8477 40.5888)" cx="69.226" cy="976.455" rx="17.21" ry="17.21"/>
	<ellipse transform="matrix(0.9665 -0.2567 0.2567 0.9665 -257.8957 54.1276)" cx="78.379" cy="1014.892" rx="15.713" ry="15.713"/>
	<ellipse transform="matrix(0.9535 -0.3015 0.3015 0.9535 -312.367 75.5268)" cx="88.475" cy="1049.634" rx="14.217" ry="14.217"/>
	<ellipse transform="matrix(0.9398 -0.3419 0.3419 0.9398 -363.5158 98.9842)" cx="99.074" cy="1080.838" rx="12.72" ry="12.72"/>
	<ellipse transform="matrix(0.9259 -0.3777 0.3777 0.9259 -410.5134 123.5362)" cx="109.736" cy="1108.494" rx="12.72" ry="12.72"/>
	<ellipse transform="matrix(0.9116 -0.411 0.411 0.9116 -455.4679 149.8462)" cx="120.754" cy="1134.178" rx="14.217" ry="14.217"/>
	
		<ellipse transform="matrix(0.8952 -0.4457 0.4457 0.8952 -503.4716 181.1767)" cx="133.422" cy="1160.901" rx="15.713" ry="15.713"/>
	<ellipse transform="matrix(0.8746 -0.4848 0.4848 0.8746 -558.3052 221.3081)" cx="148.693" cy="1190.002" rx="17.21" ry="17.21"/>
	
		<ellipse transform="matrix(0.8518 -0.5238 0.5238 0.8518 -615.0064 268.4092)" cx="166.928" cy="1221.269" rx="18.706" ry="18.706"/>
	
		<ellipse transform="matrix(0.8241 -0.5664 0.5664 0.8241 -677.3638 327.3777)" cx="188.464" cy="1254.384" rx="20.203" ry="20.203"/>
	
		<ellipse transform="matrix(0.7916 -0.6111 0.6111 0.7916 -743.1677 399.2763)" cx="213.704" cy="1289.027" rx="21.699" ry="21.699"/>
	
		<ellipse transform="matrix(0.7363 -0.6766 0.6766 0.7363 -832.2202 513.6154)" cx="242.901" cy="1324.615" rx="23.195" ry="23.195"/>
	
		<ellipse transform="matrix(0.7103 -0.7039 0.7039 0.7103 -877.678 588.7426)" cx="276.478" cy="1360.742" rx="24.692" ry="24.692"/>
	
		<ellipse transform="matrix(0.6614 -0.7501 0.7501 0.6614 -941.1612 709.1348)" cx="314.763" cy="1396.873" rx="26.188" ry="26.188"/>
	
		<ellipse transform="matrix(0.6057 -0.7957 0.7957 0.6057 -998.5213 849.6415)" cx="358.087" cy="1432.398" rx="27.685" ry="27.685"/>
	
		<ellipse transform="matrix(0.5286 -0.8489 0.8489 0.5286 -1053.1746 1036.3149)" cx="406.519" cy="1466.444" rx="29.181" ry="29.181"/>
	
		<ellipse transform="matrix(0.4744 -0.8803 0.8803 0.4744 -1076.9989 1192.6588)" cx="460.305" cy="1498.273" rx="30.678" ry="30.678"/>
	
		<ellipse transform="matrix(0.3989 -0.917 0.917 0.3989 -1088.0267 1394.3105)" cx="519.492" cy="1527.044" rx="32.174" ry="32.174"/>
	<ellipse transform="matrix(0.2952 -0.9554 0.9554 0.2952 -1070.999 1651.7443)" cx="584.06" cy="1551.8" rx="33.671" ry="33.671"/>
	
		<ellipse transform="matrix(0.2271 -0.9739 0.9739 0.2271 -1025.146 1851.2339)" cx="653.768" cy="1571.494" rx="35.167" ry="35.167"/>
	
		<ellipse transform="matrix(0.1325 -0.9912 0.9912 0.1325 -939.4296 2096.9028)" cx="728.207" cy="1585.13" rx="36.664" ry="36.664"/>
	
		<ellipse transform="matrix(0.0239 -0.9997 0.9997 0.0239 -803.5057 2360.3845)" cx="806.935" cy="1591.645" rx="38.16" ry="38.16"/>
	
		<ellipse transform="matrix(0.9974 -0.0723 0.0723 0.9974 -112.5745 68.4151)" cx="889.209" cy="1589.986" rx="36.664" ry="36.664"/>
	
		<ellipse transform="matrix(0.9777 -0.2098 0.2098 0.9777 -309.8734 238.8918)" cx="970.88" cy="1579.775" rx="35.167" ry="35.167"/>
	
		<ellipse transform="matrix(0.9619 -0.2735 0.2735 0.9619 -387.2863 346.1746)" cx="1047.836" cy="1562.005" rx="33.671" ry="33.671"/>
	
		<ellipse transform="matrix(0.9314 -0.3639 0.3639 0.9314 -482.8493 512.8231)" cx="1119.578" cy="1537.865" rx="32.174" ry="32.174"/>
	
		<ellipse transform="matrix(0.8842 -0.4671 0.4671 0.8842 -567.2897 728.5085)" cx="1185.745" cy="1508.468" rx="30.678" ry="30.678"/>
	
		<ellipse transform="matrix(0.8519 -0.5238 0.5238 0.8519 -587.8732 871.1573)" cx="1246.154" cy="1474.86" rx="29.181" ry="29.181"/>
	
		<ellipse transform="matrix(0.8057 -0.5923 0.5923 0.8057 -599.0562 1049.7959)" cx="1300.776" cy="1438.097" rx="27.685" ry="27.685"/>
	
		<ellipse transform="matrix(0.7377 -0.6752 0.6752 0.7377 -590.5753 1278.319)" cx="1349.664" cy="1399.117" rx="26.188" ry="26.188"/>
	
		<ellipse transform="matrix(0.7057 -0.7085 0.7085 0.7057 -552.7113 1386.7084)" cx="1393.02" cy="1358.731" rx="24.692" ry="24.692"/>
	
		<ellipse transform="matrix(0.6546 -0.7559 0.7559 0.6546 -501.9171 1536.9175)" cx="1431.083" cy="1317.77" rx="23.195" ry="23.195"/>
	
		<ellipse transform="matrix(0.6035 -0.7974 0.7974 0.6035 -437.5559 1673.8804)" cx="1464.213" cy="1276.878" rx="21.699" ry="21.699"/>
	
		<ellipse transform="matrix(0.5333 -0.8459 0.8459 0.5333 -349.321 1839.9714)" cx="1492.813" cy="1236.558" rx="20.203" ry="20.203"/>
	
		<ellipse transform="matrix(0.5038 -0.8638 0.8638 0.5038 -281.5859 1904.7742)" cx="1517.144" cy="1197.483" rx="18.706" ry="18.706"/>
	
		<ellipse transform="matrix(0.4571 -0.8894 0.8894 0.4571 -196.8654 1997.3186)" cx="1537.734" cy="1159.928" rx="17.21" ry="17.21"/>
	<ellipse transform="matrix(0.4129 -0.9108 0.9108 0.4129 -111.2 2076.2683)" cx="1554.917" cy="1124.39" rx="15.713" ry="15.713"/>
	
		<ellipse transform="matrix(0.3714 -0.9285 0.9285 0.3714 -26.6537 2142.7854)" cx="1569.128" cy="1091.077" rx="14.217" ry="14.217"/>
	<ellipse transform="matrix(0.3328 -0.943 0.943 0.3328 54.8825 2198.0076)" cx="1580.744" cy="1060.219" rx="12.72" ry="12.72"/>
	
		<ellipse transform="matrix(0.2857 -0.9583 0.9583 0.2857 146.7582 2261.0667)" cx="1590.093" cy="1032.089" rx="12.72" ry="12.72"/>
	
		<ellipse transform="matrix(0.2641 -0.9645 0.9645 0.2641 206.3808 2281.0198)" cx="1597.943" cy="1005.269" rx="14.217" ry="14.217"/>
	
		<ellipse transform="matrix(0.2285 -0.9735 0.9735 0.2285 287.7128 2316.1155)" cx="1605.255" cy="976.52" rx="15.713" ry="15.713"/>
	<ellipse transform="matrix(0.1887 -0.982 0.982 0.1887 380.5532 2349.3064)" cx="1612.127" cy="944.334" rx="17.21" ry="17.21"/>
	
		<ellipse transform="matrix(0.1444 -0.9895 0.9895 0.1444 485.3938 2378.6196)" cx="1618.165" cy="908.624" rx="18.706" ry="18.706"/>
	
		<ellipse transform="matrix(0.0956 -0.9954 0.9954 0.0956 602.3605 2401.7383)" cx="1622.917" cy="869.375" rx="20.203" ry="20.203"/>
	
		<ellipse transform="matrix(0.0425 -0.9991 0.9991 0.0425 730.8512 2416.0452)" cx="1625.874" cy="826.738" rx="21.699" ry="21.699"/>
</g>
</svg>
