<?xml version="1.0" encoding="UTF-8"?><svg id="Layer_1" xmlns="http://www.w3.org/2000/svg" viewBox="0 0 138 56"><path d="M101.66,54.58h1.31c.42,0,.75-.12,1-.35s.37-.61,.37-1.15v-.49c0-.49-.09-.85-.28-1.1-.19-.25-.47-.38-.85-.38h-.84l-.21,.89c-.03,.15-.05,.28-.05,.4,0,.18,.05,.32,.15,.42,.1,.1,.26,.17,.49,.22l-.13,.42c-.37-.04-.64-.14-.81-.32-.17-.17-.25-.42-.25-.72,0-.15,.02-.31,.05-.47l.3-1.33h1.4c.52,0,.92,.17,1.2,.51,.29,.34,.43,.83,.44,1.47v.45c0,.69-.17,1.2-.52,1.52-.35,.32-.8,.48-1.36,.48h-1.42v-.49Z"/></svg>